<svg width="70" height="70" viewBox="0 0 70 70" fill="none" xmlns="http://www.w3.org/2000/svg">
<rect width="70" height="70" rx="35" fill="url(#paint0_linear_67_196)" fill-opacity="0.1"/>
<rect x="0.5" y="0.5" width="69" height="69" rx="34.5" stroke="url(#paint1_linear_67_196)" stroke-opacity="0.2"/>
<path d="M46.0533 41.4311C45.6374 42.3919 45.1451 43.2763 44.5748 44.0893C43.7973 45.1978 43.1608 45.9651 42.6702 46.3911C41.9097 47.0905 41.095 47.4487 40.2225 47.469C39.5961 47.469 38.8407 47.2908 37.9614 46.9292C37.0792 46.5694 36.2685 46.3911 35.5272 46.3911C34.7498 46.3911 33.916 46.5694 33.0241 46.9292C32.1309 47.2908 31.4114 47.4792 30.8612 47.4979C30.0245 47.5335 29.1906 47.1652 28.3581 46.3911C27.8268 45.9277 27.1622 45.1333 26.3661 44.0079C25.512 42.8061 24.8097 41.4124 24.2596 39.8236C23.6704 38.1074 23.375 36.4456 23.375 34.8367C23.375 32.9938 23.7732 31.4043 24.5709 30.0722C25.1977 29.0023 26.0317 28.1583 27.0755 27.5388C28.1193 26.9192 29.2471 26.6034 30.4616 26.5832C31.1262 26.5832 31.9977 26.7888 33.0807 27.1928C34.1606 27.5982 34.854 27.8037 35.158 27.8037C35.3853 27.8037 36.1556 27.5634 37.4615 27.0842C38.6964 26.6398 39.7387 26.4558 40.5925 26.5282C42.9062 26.715 44.6444 27.627 45.8004 29.2702C43.7311 30.5239 42.7076 32.28 42.7279 34.5327C42.7466 36.2874 43.3832 37.7476 44.6342 38.9069C45.2011 39.445 45.8343 39.8609 46.5388 40.1563C46.386 40.5993 46.2247 41.0237 46.0533 41.4311ZM40.747 20.5504C40.747 21.9257 40.2445 23.2098 39.243 24.3984C38.0344 25.8114 36.5725 26.6279 34.9873 26.499C34.9671 26.3341 34.9554 26.1604 34.9554 25.9779C34.9554 24.6576 35.5301 23.2446 36.5508 22.0893C37.0604 21.5044 37.7085 21.018 38.4944 20.63C39.2787 20.2478 40.0205 20.0364 40.7181 20.0002C40.7385 20.1841 40.747 20.368 40.747 20.5504V20.5504Z" fill="#CAFF33"/>
<defs>
<linearGradient id="paint0_linear_67_196" x1="35" y1="-46.3514" x2="35" y2="180.676" gradientUnits="userSpaceOnUse">
<stop stop-color="#CAFF33"/>
<stop offset="0.467671" stop-color="#CAFF33" stop-opacity="0"/>
</linearGradient>
<linearGradient id="paint1_linear_67_196" x1="35" y1="-121.554" x2="35" y2="133.378" gradientUnits="userSpaceOnUse">
<stop stop-color="#CAFF33"/>
<stop offset="0.716291" stop-color="#CAFF33" stop-opacity="0"/>
</linearGradient>
</defs>
</svg>
